<!-- Generator: Adobe Illustrator 17.1.0, SVG Export Plug-In  -->
<svg version="1.1"
	 xmlns="http://www.w3.org/2000/svg" xmlns:xlink="http://www.w3.org/1999/xlink" xmlns:a="http://ns.adobe.com/AdobeSVGViewerExtensions/3.0/"
	 x="0px" y="0px" width="265.1px" height="150.3px" viewBox="0 0 265.1 150.3" enable-background="new 0 0 265.1 150.3"
	 xml:space="preserve">
<defs>
</defs>
<g>
	<g>
		<g>
			<line fill="#FFFFFF" x1="122" y1="91.9" x2="122" y2="36"/>
			<rect x="121.4" y="36" fill="#FFFFFF" width="1.2" height="55.9"/>
		</g>
		<g>
			<line fill="#FFFFFF" x1="125.1" y1="90.1" x2="125.1" y2="37.9"/>
			<rect x="124.5" y="37.9" fill="#FFFFFF" width="1.2" height="52.2"/>
		</g>
		<g>
			<line fill="#FFFFFF" x1="128.3" y1="85.6" x2="128.3" y2="42.3"/>
			<rect x="127.7" y="42.3" fill="#FFFFFF" width="1.2" height="43.3"/>
		</g>
		<g>
			<line fill="#FFFFFF" x1="131.4" y1="82.2" x2="131.4" y2="45.7"/>
			<rect x="130.8" y="45.7" fill="#FFFFFF" width="1.2" height="36.5"/>
		</g>
		<g>
			<line fill="#FFFFFF" x1="135.2" y1="77.6" x2="135.2" y2="50.3"/>
			<rect x="134.5" y="50.3" fill="#FFFFFF" width="1.2" height="27.3"/>
		</g>
		<g>
			<line fill="#FFFFFF" x1="137.7" y1="73.2" x2="137.7" y2="54.8"/>
			<rect x="137" y="54.8" fill="#FFFFFF" width="1.2" height="18.4"/>
		</g>
		<g>
			<line fill="#FFFFFF" x1="140.8" y1="68.9" x2="140.8" y2="59"/>
			<rect x="140.2" y="59" fill="#FFFFFF" width="1.2" height="9.9"/>
		</g>
		<g>
			<line fill="#FFFFFF" x1="143.1" y1="66.8" x2="143.1" y2="61.2"/>
			<rect x="142.5" y="61.2" fill="#FFFFFF" width="1.2" height="5.6"/>
		</g>
	</g>
	<g>
		<g>
			<line fill="#FFFFFF" x1="87" y1="111" x2="0" y2="111"/>
			<rect x="0" y="110.4" fill="#FFFFFF" width="87" height="1.2"/>
		</g>
		<g>
			<line fill="#FFFFFF" x1="265.1" y1="111" x2="180.5" y2="111"/>
			<rect x="180.5" y="110.4" fill="#FFFFFF" width="84.6" height="1.2"/>
		</g>
		<g>
			<path fill="#FFFFFF" d="M100.3,117.1c-0.3,0.1-1.2,0.1-2.3,0.1c-6.2,0-7.7-3.4-7.7-5c0-2.9,2.7-6.3,8.9-7.4l0.3,1.5
				c-4,0.5-7.4,2.7-7.4,5.6c0,2,1.7,3.9,6,3.9c0.7,0,1.5-0.1,1.9-0.2L100.3,117.1z"/>
			<path fill="#FFFFFF" d="M105.5,105.1c-0.1,0.4-0.2,3.7-0.2,5.9v4.7c0.4,0,2.6,0,4.5-0.1v1.6c-0.6,0-6-0.2-6.4-0.2
				c0.2-0.9,0.2-4.5,0.2-4.9v-2.3c0-0.3,0-4.4-0.1-4.7H105.5z"/>
			<path fill="#FFFFFF" d="M115.2,111.8c0,1.7,0.1,4.7,0.1,5.1h-1.9c0-0.7,0.1-4.7,0.1-5.2V110c0-0.3-0.1-4.5-0.1-4.9h1.9
				c0,0.3-0.1,2.9-0.1,4.9V111.8z"/>
			<path fill="#FFFFFF" d="M126.8,117.2c-0.6,0-6.1-0.2-6.4-0.2c0.1-0.9,0.1-4.5,0.1-4.9v-2.3c0-0.3,0-4.4-0.1-4.7
				c0.4,0,5.2-0.3,6.1-0.3l0.1,1.4c-0.8,0-4.1,0.1-4.4,0.1v4.2c0.3,0,2.7-0.1,3.8-0.2l0.1,1.5c-0.6,0-3.4-0.1-3.8-0.1v4
				c0.4,0,2.9,0,4.6-0.1L126.8,117.2z"/>
			<path fill="#FFFFFF" d="M130.4,117c0.1-1.3,0.6-10.8,0.7-12.6h0.1c0.5,0.6,8.9,9,9.4,9.5c0-0.5,0-8.3,0.1-8.9l1.8,0.1
				c-0.1,1-0.4,8-0.5,12.3h-0.1c-0.5-0.5-9.3-9.2-9.5-9.4c0,0.3-0.1,8.6-0.1,9.2L130.4,117z"/>
			<path fill="#FFFFFF" d="M149.1,117c0.1-0.4,0.1-5.4,0.1-8.1v-2.4c-2.1,0-4.6,0.1-4.9,0.2V105c0.5,0.1,4.8,0.2,5,0.2h1.6
				c0.3,0,4.3-0.1,4.9-0.2v1.6c0-0.1-3.4-0.2-4.9-0.2v2.6c0,3.5,0.2,7.5,0.2,7.8H149.1z"/>
			<path fill="#FFFFFF" d="M164.8,117.2c-0.6,0-6.1-0.2-6.4-0.2c0.1-0.9,0.1-4.5,0.1-4.9v-2.3c0-0.3,0-4.4-0.1-4.7
				c0.4,0,5.2-0.3,6.1-0.3l0.1,1.4c-0.8,0-4.1,0.1-4.4,0.1v4.2c0.3,0,2.7-0.1,3.8-0.2l0.1,1.5c-0.6,0-3.4-0.1-3.8-0.1v4
				c0.4,0,2.9,0,4.6-0.1L164.8,117.2z"/>
			<path fill="#FFFFFF" d="M168.4,115.9c1.8-0.4,4.2-1.1,4.2-2.5c0-0.9-0.6-1.3-1.9-1.9c-1.6-0.8-2.7-1.5-2.7-2.7
				c0-1.9,2.8-3.6,5.4-4l0.4,1.4c-1.2,0.2-3.9,0.9-3.9,2.3c0,0.9,1.3,1.4,2.1,1.8c1.4,0.8,2.6,1.3,2.6,2.7c0,1.8-2,3.5-5.6,4.3
				L168.4,115.9z"/>
		</g>
	</g>
	<g>
		<path fill-rule="evenodd" clip-rule="evenodd" fill="#FFFFFF" d="M55.5,75.1C55.5,34.4,88.9,1,130.2,0c-0.4,0-0.7,0-1.1,0
			C87,0,52.5,33.8,52.5,75.1c0,41.4,34.4,75.1,76.6,75.1c0.4,0,0.7,0,1.1,0C88.9,149.2,55.5,115.9,55.5,75.1z"/>
		<path fill-rule="evenodd" clip-rule="evenodd" fill="#FFFFFF" d="M135.9,0c-0.5,0-1,0-1.5,0c41.2,1.2,74.4,34.5,74.4,75.1
			s-33.2,73.9-74.4,75.1c0.5,0,1,0,1.5,0c42.2,0,76.6-33.8,76.6-75.1C212.5,33.8,178.1,0,135.9,0z"/>
	</g>
</g>
</svg>

