<!-- Generator: Adobe Illustrator 17.1.0, SVG Export Plug-In  -->
<svg version="1.1"
	 xmlns="http://www.w3.org/2000/svg" xmlns:xlink="http://www.w3.org/1999/xlink" xmlns:a="http://ns.adobe.com/AdobeSVGViewerExtensions/3.0/"
	 x="0px" y="0px" width="265.1px" height="150.3px" viewBox="0 0 265.1 150.3" enable-background="new 0 0 265.1 150.3"
	 xml:space="preserve">
<defs>
</defs>
<g>
	<g>
		<line fill="#FFFFFF" x1="104.6" y1="53.4" x2="160.5" y2="53.4"/>
		<rect x="104.6" y="52.8" fill="#FFFFFF" width="55.9" height="1.2"/>
	</g>
	<g>
		<line fill="#FFFFFF" x1="106.5" y1="56.6" x2="158.6" y2="56.6"/>
		<rect x="106.5" y="55.9" fill="#FFFFFF" width="52.2" height="1.2"/>
	</g>
	<g>
		<line fill="#FFFFFF" x1="110.9" y1="59.7" x2="154.2" y2="59.7"/>
		<rect x="110.9" y="59.1" fill="#FFFFFF" width="43.3" height="1.2"/>
	</g>
	<g>
		<line fill="#FFFFFF" x1="114.3" y1="62.8" x2="150.8" y2="62.8"/>
		<rect x="114.3" y="62.2" fill="#FFFFFF" width="36.5" height="1.2"/>
	</g>
	<g>
		<line fill="#FFFFFF" x1="118.9" y1="66.6" x2="146.2" y2="66.6"/>
		<rect x="118.9" y="66" fill="#FFFFFF" width="27.3" height="1.2"/>
	</g>
	<g>
		<line fill="#FFFFFF" x1="123.3" y1="69.1" x2="141.8" y2="69.1"/>
		<rect x="123.3" y="68.5" fill="#FFFFFF" width="18.4" height="1.2"/>
	</g>
	<g>
		<line fill="#FFFFFF" x1="127.6" y1="72.2" x2="137.5" y2="72.2"/>
		<rect x="127.6" y="71.6" fill="#FFFFFF" width="9.9" height="1.2"/>
	</g>
	<g>
		<line fill="#FFFFFF" x1="129.7" y1="74.5" x2="135.4" y2="74.5"/>
		<rect x="129.7" y="73.9" fill="#FFFFFF" width="5.6" height="1.2"/>
	</g>
	<g>
		<line fill="#FFFFFF" x1="85.8" y1="111" x2="0" y2="111"/>
		<rect x="0" y="110.4" fill="#FFFFFF" width="85.8" height="1.2"/>
	</g>
	<g>
		<line fill="#FFFFFF" x1="265.1" y1="111" x2="182.6" y2="111"/>
		<rect x="182.6" y="110.4" fill="#FFFFFF" width="82.5" height="1.2"/>
	</g>
	<g>
		<path fill="#FFFFFF" d="M98.8,110.7c0-0.4,0-3.9-0.1-4.4c1,0,2.9,0,4.5,0.1c5.9,0.5,6.5,3.3,6.5,4.5c0,5.4-6.2,7.4-11,7.4
			c0.1-0.8,0.1-5,0.1-5.5V110.7z M100.5,116.8c4.9-0.3,7.3-3.1,7.3-5.5c0-2.6-2.7-3.7-7.3-3.6V116.8z"/>
		<path fill="#FFFFFF" d="M114.8,113.1c0,1.7,0.1,4.7,0.1,5.1H113c0-0.7,0.1-4.7,0.1-5.2v-1.8c0-0.3-0.1-4.5-0.1-4.9h1.9
			c0,0.3-0.1,2.9-0.1,4.9V113.1z"/>
		<path fill="#FFFFFF" d="M119.5,117.1c1.8-0.4,4.2-1.1,4.2-2.5c0-0.9-0.6-1.3-1.9-1.9c-1.6-0.8-2.7-1.5-2.7-2.7
			c0-1.9,2.8-3.6,5.4-4l0.4,1.4c-1.2,0.2-3.9,0.9-3.9,2.3c0,0.9,1.3,1.4,2.1,1.8c1.4,0.8,2.6,1.3,2.6,2.7c0,1.8-2,3.5-5.6,4.3
			L119.5,117.1z"/>
		<path fill="#FFFFFF" d="M136.1,118.4c-0.6,0-6.1-0.2-6.4-0.2c0.1-0.9,0.1-4.5,0.1-4.9V111c0-0.3,0-4.4-0.1-4.7
			c0.4,0,5.2-0.3,6.1-0.3l0.1,1.4c-0.8,0-4.1,0.1-4.4,0.1v4.2c0.3,0,2.7-0.1,3.8-0.2l0.1,1.5c-0.6,0-3.4-0.1-3.8-0.1v4
			c0.4,0,2.9,0,4.6-0.1L136.1,118.4z"/>
		<path fill="#FFFFFF" d="M139.6,118.2c0.1-1.3,0.6-10.8,0.7-12.6h0.1c0.5,0.6,8.9,9,9.4,9.5c0-0.5,0-8.3,0.1-8.9l1.8,0.1
			c-0.1,1-0.4,8-0.5,12.3h-0.1c-0.5-0.5-9.3-9.2-9.5-9.4c0,0.3-0.1,8.6-0.1,9.2L139.6,118.2z M142.7,104c0.5-0.8,1.1-1.5,1.7-1.5
			c0.7,0,1.1,0.2,1.5,0.4c0.3,0.2,0.6,0.3,1,0.3c0.4,0,0.8-0.4,1.1-0.8l0.8,0.6c-0.5,0.7-1.1,1.4-1.7,1.4c-0.6,0-1-0.2-1.4-0.4
			c-0.4-0.2-0.7-0.3-1.1-0.3c-0.5,0-0.8,0.4-1.1,0.8L142.7,104z"/>
		<path fill="#FFFFFF" d="M154.6,112.9c0-3.8,2.8-6.8,7.2-6.8c3.5,0,6.1,2.1,6.1,5.8c0,2.7-1.9,6.7-7.1,6.7
			C156.8,118.5,154.6,115.9,154.6,112.9z M166,111.9c0-3-2.1-4.6-4.5-4.6c-3.2,0-5.1,2.4-5.1,5.3c0,2.5,1.7,4.6,4.5,4.6
			C163.6,117.2,166,115.3,166,111.9z"/>
	</g>
	<g>
		<path fill-rule="evenodd" clip-rule="evenodd" fill="#FFFFFF" d="M55.5,75.1C55.5,34.4,88.9,1,130.2,0c-0.4,0-0.7,0-1.1,0
			C87,0,52.5,33.8,52.5,75.1c0,41.4,34.4,75.1,76.6,75.1c0.4,0,0.7,0,1.1,0C88.9,149.2,55.5,115.9,55.5,75.1z"/>
		<path fill-rule="evenodd" clip-rule="evenodd" fill="#FFFFFF" d="M135.9,0c-0.5,0-1,0-1.5,0c41.2,1.2,74.4,34.5,74.4,75.1
			s-33.2,73.9-74.4,75.1c0.5,0,1,0,1.5,0c42.2,0,76.6-33.8,76.6-75.1C212.5,33.8,178.1,0,135.9,0z"/>
	</g>
</g>
</svg>
