<!-- Generator: Adobe Illustrator 17.1.0, SVG Export Plug-In  -->
<svg version="1.1"
	 xmlns="http://www.w3.org/2000/svg" xmlns:xlink="http://www.w3.org/1999/xlink" xmlns:a="http://ns.adobe.com/AdobeSVGViewerExtensions/3.0/"
	 x="0px" y="0px" width="40px" height="40px" viewBox="0 0 40 40" enable-background="new 0 0 40 40" xml:space="preserve">
<defs>
</defs>
<path fill="#FFFFFF" d="M35,0H5C2.3,0,0,2.3,0,5v30c0,2.8,2.3,5,5,5h15.2V25.7h-4.8v-6.2h4.8v-3.1c0-4.8,3.6-8.6,8.1-8.6h4.4v7.1h-4
	c-1,0-1.3,0.6-1.3,1.4v3.3h5.3v6.2h-5.3V40H35c2.8,0,5-2.2,5-5V5C40,2.3,37.8,0,35,0L35,0z"/>
</svg>
