<!-- Generator: Adobe Illustrator 17.1.0, SVG Export Plug-In  -->
<svg version="1.1"
	 xmlns="http://www.w3.org/2000/svg" xmlns:xlink="http://www.w3.org/1999/xlink" xmlns:a="http://ns.adobe.com/AdobeSVGViewerExtensions/3.0/"
	 x="0px" y="0px" width="265.1px" height="150.3px" viewBox="0 0 265.1 150.3" enable-background="new 0 0 265.1 150.3"
	 xml:space="preserve">
<defs>
</defs>
<g>
	<g>
		<g>
			<line fill="#FFFFFF" x1="143.1" y1="36" x2="143.1" y2="91.9"/>
			<rect x="142.5" y="36" fill="#FFFFFF" width="1.2" height="55.9"/>
		</g>
		<g>
			<line fill="#FFFFFF" x1="139.9" y1="37.9" x2="139.9" y2="90.1"/>
			<rect x="139.3" y="37.9" fill="#FFFFFF" width="1.2" height="52.2"/>
		</g>
		<g>
			<line fill="#FFFFFF" x1="136.8" y1="42.3" x2="136.8" y2="85.6"/>
			<rect x="136.2" y="42.3" fill="#FFFFFF" width="1.2" height="43.3"/>
		</g>
		<g>
			<line fill="#FFFFFF" x1="133.7" y1="45.7" x2="133.7" y2="82.2"/>
			<rect x="133.1" y="45.7" fill="#FFFFFF" width="1.2" height="36.5"/>
		</g>
		<g>
			<line fill="#FFFFFF" x1="129.9" y1="50.3" x2="129.9" y2="77.6"/>
			<rect x="129.3" y="50.3" fill="#FFFFFF" width="1.2" height="27.3"/>
		</g>
		<g>
			<line fill="#FFFFFF" x1="127.4" y1="54.8" x2="127.4" y2="73.2"/>
			<rect x="126.8" y="54.8" fill="#FFFFFF" width="1.2" height="18.4"/>
		</g>
		<g>
			<line fill="#FFFFFF" x1="124.3" y1="59" x2="124.3" y2="68.9"/>
			<rect x="123.7" y="59" fill="#FFFFFF" width="1.2" height="9.9"/>
		</g>
		<g>
			<line fill="#FFFFFF" x1="122" y1="61.2" x2="122" y2="66.8"/>
			<rect x="121.4" y="61.2" fill="#FFFFFF" width="1.2" height="5.6"/>
		</g>
	</g>
	<g>
		<line fill="#FFFFFF" x1="69.8" y1="111" x2="0" y2="111"/>
		<rect x="0" y="110.4" fill="#FFFFFF" width="69.8" height="1.2"/>
	</g>
	<g>
		<line fill="#FFFFFF" x1="265.1" y1="111" x2="195.3" y2="111"/>
		<rect x="195.3" y="110.4" fill="#FFFFFF" width="69.8" height="1.2"/>
	</g>
	<g>
		<path fill="#FFFFFF" d="M73.9,117c0.2-0.9,0.2-4.5,0.2-4.9v-2.3c0-0.3,0-4.4-0.1-4.7c0.5,0,5-0.2,6.1-0.3l0.1,1.4l-4.3,0.1v4.2
			c0.3,0,2.9-0.1,4-0.2l0.1,1.4l-4-0.1v1.6c0,0.3,0,3.5,0.1,3.7H73.9z"/>
		<path fill="#FFFFFF" d="M82.4,111.6c0-3.8,2.8-6.8,7.2-6.8c3.5,0,6.1,2.1,6.1,5.8c0,2.7-1.9,6.7-7.1,6.7
			C84.6,117.3,82.4,114.6,82.4,111.6z M93.8,110.7c0-3-2.1-4.6-4.5-4.6c-3.2,0-5.1,2.4-5.1,5.3c0,2.5,1.7,4.6,4.5,4.6
			C91.4,115.9,93.8,114,93.8,110.7z"/>
		<path fill="#FFFFFF" d="M101.4,117c0.1-0.4,0.1-5.4,0.1-8.1v-2.4c-2.1,0-4.6,0.1-4.9,0.2V105c0.5,0.1,4.8,0.2,5,0.2h1.6
			c0.3,0,4.3-0.1,4.9-0.2v1.6c0-0.1-3.4-0.2-4.9-0.2v2.6c0,3.5,0.2,7.5,0.2,7.8H101.4z"/>
		<path fill="#FFFFFF" d="M108.5,111.6c0-3.8,2.8-6.8,7.2-6.8c3.5,0,6.1,2.1,6.1,5.8c0,2.7-1.9,6.7-7.1,6.7
			C110.7,117.3,108.5,114.6,108.5,111.6z M119.9,110.7c0-3-2.1-4.6-4.5-4.6c-3.2,0-5.1,2.4-5.1,5.3c0,2.5,1.7,4.6,4.5,4.6
			C117.6,115.9,119.9,114,119.9,110.7z"/>
		<path fill="#FFFFFF" d="M134.6,116.7c-0.8,0.3-2.5,0.5-4,0.5c-4.1,0-6.6-2.2-6.6-5c0-2,2.1-5.8,8.8-7.5l0.4,1.6
			c-3.9,0.7-7.3,3.3-7.3,6c0,1.8,1.5,3.7,5.1,3.7c0.8,0,1.5-0.1,1.9-0.2V113c0-0.5,0-1.1-0.1-1.2h1.8v2.5
			C134.5,115,134.6,116.5,134.6,116.7z"/>
		<path fill="#FFFFFF" d="M140.4,111.8c0,0.6,0.1,4.9,0.1,5.2h-1.9c0.1-0.4,0-5.8,0-6.2v-1.4c0-0.5,0-4-0.1-4.4c0.9,0,2.4,0,4,0.1
			c2.4,0.3,3.8,1.3,3.8,2.7c0,1.4-1.1,2.6-2.6,3.5c0.5,0.6,3.7,4.1,4.2,4.6l-1.4,1.2c-0.2-0.2-4.3-5.3-4.9-6
			c0.9-0.5,2.7-1.4,2.7-3.1c0-0.8-0.6-1.8-4-1.8V111.8z"/>
		<path fill="#FFFFFF" d="M148.7,116.5c1-1.7,6.2-11.3,6.6-12h0c1.5,2.4,5.9,10.1,7,11.9l-1.6,1c-0.3-0.6-2.2-4-2.4-4.3l-6.2,0.2
			c-0.2,0.5-1.6,3.5-1.9,4.1L148.7,116.5z M157.7,111.8c-0.2-0.4-2.3-4.2-2.5-4.5c-0.3,0.4-2.2,4.4-2.4,4.7L157.7,111.8z"/>
		<path fill="#FFFFFF" d="M165.1,117c0.2-0.9,0.2-4.5,0.2-4.9v-2.3c0-0.3,0-4.4-0.1-4.7c0.5,0,5-0.2,6.1-0.3l0.1,1.4l-4.3,0.1v4.2
			c0.3,0,2.9-0.1,4-0.2l0.1,1.4l-4-0.1v1.6c0,0.3,0,3.5,0.1,3.7H165.1z"/>
		<path fill="#FFFFFF" d="M176.9,111.8c0,1.7,0.1,4.7,0.1,5.1h-1.9c0-0.7,0.1-4.7,0.1-5.2V110c0-0.3-0.1-4.5-0.1-4.9h1.9
			c0,0.3-0.1,2.9-0.1,4.9V111.8z"/>
		<path fill="#FFFFFF" d="M179.8,116.5c1-1.7,6.2-11.3,6.6-12h0c1.5,2.4,5.9,10.1,7,11.9l-1.6,1c-0.3-0.6-2.2-4-2.4-4.3l-6.2,0.2
			c-0.2,0.5-1.6,3.5-1.9,4.1L179.8,116.5z M188.8,111.8c-0.2-0.4-2.3-4.2-2.5-4.5c-0.3,0.4-2.2,4.4-2.4,4.7L188.8,111.8z"/>
	</g>
	<g>
		<path fill-rule="evenodd" clip-rule="evenodd" fill="#FFFFFF" d="M55.5,75.1C55.5,34.4,88.9,1,130.2,0c-0.4,0-0.7,0-1.1,0
			C87,0,52.5,33.8,52.5,75.1c0,41.4,34.4,75.1,76.6,75.1c0.4,0,0.7,0,1.1,0C88.9,149.2,55.5,115.9,55.5,75.1z"/>
		<path fill-rule="evenodd" clip-rule="evenodd" fill="#FFFFFF" d="M135.9,0c-0.5,0-1,0-1.5,0c41.2,1.2,74.4,34.5,74.4,75.1
			s-33.2,73.9-74.4,75.1c0.5,0,1,0,1.5,0c42.2,0,76.6-33.8,76.6-75.1C212.5,33.8,178.1,0,135.9,0z"/>
	</g>
</g>
</svg>
