<!-- Generator: Adobe Illustrator 17.1.0, SVG Export Plug-In  -->
<svg version="1.1"
	 xmlns="http://www.w3.org/2000/svg" xmlns:xlink="http://www.w3.org/1999/xlink" xmlns:a="http://ns.adobe.com/AdobeSVGViewerExtensions/3.0/"
	 x="0px" y="0px" width="42.4px" height="23.7px" viewBox="0 0 42.4 23.7" enable-background="new 0 0 42.4 23.7"
	 xml:space="preserve">
<defs>
</defs>
<g>
	<g>
		<line fill="#F7F7F8" x1="2" y1="2" x2="40.4" y2="2"/>
		<path fill="#F7F7F8" d="M40.4,4H2C0.9,4,0,3.1,0,2s0.9-2,2-2h38.4c1.1,0,2,0.9,2,2S41.5,4,40.4,4z"/>
	</g>
	<g>
		<line fill="#F7F7F8" x1="2" y1="11.9" x2="40.4" y2="11.9"/>
		<path fill="#F7F7F8" d="M40.4,13.9H2c-1.1,0-2-0.9-2-2s0.9-2,2-2h38.4c1.1,0,2,0.9,2,2S41.5,13.9,40.4,13.9z"/>
	</g>
	<g>
		<line fill="#F7F7F8" x1="2" y1="21.7" x2="40.4" y2="21.7"/>
		<path fill="#F7F7F8" d="M40.4,23.7H2c-1.1,0-2-0.9-2-2s0.9-2,2-2h38.4c1.1,0,2,0.9,2,2S41.5,23.7,40.4,23.7z"/>
	</g>
</g>
</svg>
