<!-- Generator: Adobe Illustrator 17.1.0, SVG Export Plug-In  -->
<svg version="1.1"
	 xmlns="http://www.w3.org/2000/svg" xmlns:xlink="http://www.w3.org/1999/xlink" xmlns:a="http://ns.adobe.com/AdobeSVGViewerExtensions/3.0/"
	 x="0px" y="0px" width="187.5px" height="176.1px" viewBox="0 0 187.5 176.1" enable-background="new 0 0 187.5 176.1"
	 xml:space="preserve">
<defs>
</defs>
<g>
	<path fill-rule="evenodd" clip-rule="evenodd" fill="#8DB336" d="M136.1,35c-4.3,0-7.9,3.5-7.9,7.7c0,4.3,3.5,7.8,7.9,7.8
		c4.4,0,7.9-3.5,7.9-7.8C144,38.5,140.4,35,136.1,35z M137.9,44c-1.6,0-3-1.3-3-2.9s1.3-2.9,3-2.9c1.6,0,2.9,1.3,2.9,2.9
		S139.5,44,137.9,44z"/>
	<g>
		<path fill-rule="evenodd" clip-rule="evenodd" fill="#8DB336" d="M3.5,88C3.5,40.3,42.6,1.2,91,0c-0.4,0-0.8,0-1.2,0
			C40.3,0,0,39.6,0,88c0,48.5,40.3,88,89.8,88c0.4,0,0.8,0,1.2,0C42.6,174.8,3.5,135.8,3.5,88z"/>
		<path fill-rule="evenodd" clip-rule="evenodd" fill="#8DB336" d="M97.7,0c-0.6,0-1.2,0-1.8,0c48.2,1.4,87.1,40.4,87.1,88
			s-38.9,86.6-87.1,88c0.6,0,1.2,0,1.8,0c49.4,0,89.8-39.6,89.8-88C187.5,39.6,147.2,0,97.7,0z"/>
	</g>
	<path fill="#8DB336" d="M161.4,55.1c-6.9-18.2-22.9-32.7-51.3-38.1c-41.2-6.3-15.3,10.6-21.5,15.6c-1.8,1.5-4.5,2-7.9,2.3
		c-4.5-2.5-5.9-5.2-6.3-3.2c-0.1,0.8,0,1.8,0.3,3.1c-5.6-2.7-7.2-6-7.6-3.9c-0.1,0.6,0,1.4,0.1,2.3c-5.6-2.7-7.2-6-7.6-3.9
		c-0.1,1,0,2.5,0.6,4.2c-6.2-2.7-8-6.5-8.4-4.2c-0.2,1.6,0.4,4.6,2.1,8.2c-6-1.2-8.4-4-8.2-1.8c0.1,0.9,0.6,2.3,1.5,3.8
		c-6.2-1.2-8.7-4.1-8.5-1.9c0.2,1.7,1.8,4.8,4.5,8c-0.3,0.3-0.7,0.5-1,0.8c-5.5-1.3-7.7-3.8-7.6-1.7c0.1,1.4,1.2,3.6,3.1,6.1
		c-0.3,0.3-0.5,0.6-0.8,0.9c-0.1,0-0.1,0-0.2,0c-6.8-1.1-9.6-4.4-9.4-2c0.2,1.8,1.9,5,4.9,8.4c-0.1,0.1-0.1,0.2-0.2,0.3
		c-0.2,0.3-0.3,0.6-0.5,1c-4.5-1.3-6.4-3.3-6.2-1.3c0.2,1.5,1.4,4.1,3.6,6.9c-0.3,0.7-0.6,1.4-0.8,2c-3-1.2-4.2-2.2-4-0.6
		c0.1,1.2,1,3.1,2.4,5.3c-0.4,1.1-0.7,2.3-1,3.5c-4.1-1.3-5.8-3-5.6-1.2c0.2,1.7,1.7,4.5,4.2,7.6c-0.1,0.7-0.2,1.4-0.3,2.1
		c-4.9-1.3-6.8-3.5-6.7-1.5c0.2,2,2.3,5.8,6,9.6c0,0.1,0,0.1,0,0.2c-4.4-0.4-6.4-1.8-5.9,0c0.5,1.5,2.4,3.9,5.3,6.3
		c-4.8-0.4-7-1.9-6.4-0.1c0.6,1.8,3.1,4.8,7,7.6c-3.3-0.5-4.8-1.4-4.3,0.2c0.5,1.7,2.7,4.3,6.1,6.9c-0.6,0-0.9,0.2-0.6,0.9
		c0.4,1.1,1.5,2.7,3.1,4.3c-1-0.2-1.4-0.1-1.1,0.8c0.4,1.2,1.7,3,3.8,5c5.6,11.3,14.2,21.4,24.5,28.2c8.7,5.7,20.2,9,30.9,8.3
		c19-1.2,34.6-13.8,33-34.4c-0.4-5-2.4-9.9-6.5-13.6c-7.5-6.9-18.3-11.6-27.4-5.8c-12,7.6-10.3,23-1.5,27.7c1.9,1,4.1,1.6,6.6,1.4
		c8-0.5,15.6-11.2,2.1-8.5c-6.2,1.4-8.8-2.7-6.9-7.5c2.1-5.2,9.9-7.2,15.3-0.9c5.7,6.6,2.9,14.3-2.4,19.2
		c-7.5,6.8-18.6,7.3-28.2-0.9c-7.8-6.7-8.9-18.3-5.7-30.6c1.9-7.3,7.4-15.8,15.3-20.1c0.6,0.4,1.2,0.7,1.7,1.1
		c2.3,1.6,4.2,3.1,6.7,4.5c2.6,1.3,9.9,3.4,11.8,4.3c1.8,0.9,4,2.1,4.7,3.2c0.7,1.1,1.6,2.6,2.4,3.2c0.9,0.6,2.3,0.8,2.9-0.7
		c0.6-1.5-1.3-2.5-2.4-2.9c-1.1-0.4-2.6-1.3-2.6-1.5c0-0.4,1.5-0.2,2.9,0.3c1.4,0.5,2.3,1.6,3.8,2.4c1.5,0.9,3.2,0.4,3.6-0.7
		c0.4-1,0.3-2.5-2-3.2c-2.3-0.7-4.4-0.7-6-0.8c-1.6-0.1-3.2-0.7-2.9-1.4c0.3-0.7,2.2-0.6,4.3-0.4s3.3,1,4.8,1.1
		c1.5,0.1,2.6-0.9,2.5-2.2c-0.1-1.3-1.6-2-3-1.9c-1.4,0.1-4.3,1-6.7,0.9c-2.3-0.1-4-1.3-4-2.5s1.8-0.7,3.3-0.8
		c1.5-0.1,2.8-1.6,1.8-2.7c-1-1.1-3-0.2-3.9,0.5c-0.9,0.7-3.1,1.9-5,2.1c-1.9,0.2-4.7-2.2-6.9-3.6c-0.8-0.5-1.5-0.9-2.4-1.4
		c12-2,28.7,0.1,51.8-0.9C155.7,81.7,168.8,74.7,161.4,55.1z M128,66.8c-10,0-18.2-8-18.2-17.9S118,31.1,128,31.1
		c10,0,18.2,8,18.2,17.9S138.1,66.8,128,66.8z"/>
</g>
</svg>
