<!-- Generator: Adobe Illustrator 17.1.0, SVG Export Plug-In  -->
<svg version="1.1"
	 xmlns="http://www.w3.org/2000/svg" xmlns:xlink="http://www.w3.org/1999/xlink" xmlns:a="http://ns.adobe.com/AdobeSVGViewerExtensions/3.0/"
	 x="0px" y="0px" width="223.3px" height="238.7px" viewBox="0 0 223.3 238.7" enable-background="new 0 0 223.3 238.7"
	 xml:space="preserve">
<defs>
</defs>
<g>
	<path fill-rule="evenodd" clip-rule="evenodd" fill="#8DB336" d="M136.1,35c-4.3,0-7.9,3.5-7.9,7.7c0,4.3,3.5,7.8,7.9,7.8
		c4.4,0,7.9-3.5,7.9-7.8C144,38.5,140.4,35,136.1,35z M137.9,44c-1.6,0-3-1.3-3-2.9s1.3-2.9,3-2.9c1.6,0,2.9,1.3,2.9,2.9
		S139.5,44,137.9,44z"/>
	<g>
		<g>
			<path fill-rule="evenodd" clip-rule="evenodd" fill="#8DB336" d="M3.5,88C3.5,40.3,42.6,1.2,91,0c-0.4,0-0.8,0-1.2,0
				C40.3,0,0,39.6,0,88c0,48.5,40.3,88,89.8,88c0.4,0,0.8,0,1.2,0C42.6,174.8,3.5,135.8,3.5,88z"/>
			<path fill-rule="evenodd" clip-rule="evenodd" fill="#8DB336" d="M97.7,0c-0.6,0-1.2,0-1.8,0c48.2,1.4,87.1,40.4,87.1,88
				s-38.9,86.6-87.1,88c0.6,0,1.2,0,1.8,0c49.4,0,89.8-39.6,89.8-88C187.5,39.6,147.2,0,97.7,0z"/>
		</g>
		<path fill="#8DB336" d="M161.4,55.1c-6.9-18.2-22.9-32.7-51.3-38.1c-41.2-6.3-15.3,10.6-21.5,15.6c-1.8,1.5-4.5,2-7.9,2.3
			c-4.5-2.5-5.9-5.2-6.3-3.2c-0.1,0.8,0,1.8,0.3,3.1c-5.6-2.7-7.2-6-7.6-3.9c-0.1,0.6,0,1.4,0.1,2.3c-5.6-2.7-7.2-6-7.6-3.9
			c-0.1,1,0,2.5,0.6,4.2c-6.2-2.7-8-6.5-8.4-4.2c-0.2,1.6,0.4,4.6,2.1,8.2c-6-1.2-8.4-4-8.2-1.8c0.1,0.9,0.6,2.3,1.5,3.8
			c-6.2-1.2-8.7-4.1-8.5-1.9c0.2,1.7,1.8,4.8,4.5,8c-0.3,0.3-0.7,0.5-1,0.8c-5.5-1.3-7.7-3.8-7.6-1.7c0.1,1.4,1.2,3.6,3.1,6.1
			c-0.3,0.3-0.5,0.6-0.8,0.9c-0.1,0-0.1,0-0.2,0c-6.8-1.1-9.6-4.4-9.4-2c0.2,1.8,1.9,5,4.9,8.4c-0.1,0.1-0.1,0.2-0.2,0.3
			c-0.2,0.3-0.3,0.6-0.5,1c-4.5-1.3-6.4-3.3-6.2-1.3c0.2,1.5,1.4,4.1,3.6,6.9c-0.3,0.7-0.6,1.4-0.8,2c-3-1.2-4.2-2.2-4-0.6
			c0.1,1.2,1,3.1,2.4,5.3c-0.4,1.1-0.7,2.3-1,3.5c-4.1-1.3-5.8-3-5.6-1.2c0.2,1.7,1.7,4.5,4.2,7.6c-0.1,0.7-0.2,1.4-0.3,2.1
			c-4.9-1.3-6.8-3.5-6.7-1.5c0.2,2,2.3,5.8,6,9.6c0,0.1,0,0.1,0,0.2c-4.4-0.4-6.4-1.8-5.9,0c0.5,1.5,2.4,3.9,5.3,6.3
			c-4.8-0.4-7-1.9-6.4-0.1c0.6,1.8,3.1,4.8,7,7.6c-3.3-0.5-4.8-1.4-4.3,0.2c0.5,1.7,2.7,4.3,6.1,6.9c-0.6,0-0.9,0.2-0.6,0.9
			c0.4,1.1,1.5,2.7,3.1,4.3c-1-0.2-1.4-0.1-1.1,0.8c0.4,1.2,1.7,3,3.8,5c5.6,11.3,14.2,21.4,24.5,28.2c8.7,5.7,20.2,9,30.9,8.3
			c19-1.2,34.6-13.8,33-34.4c-0.4-5-2.4-9.9-6.5-13.6c-7.5-6.9-18.3-11.6-27.4-5.8c-12,7.6-10.3,23-1.5,27.7c1.9,1,4.1,1.6,6.6,1.4
			c8-0.5,15.6-11.2,2.1-8.5c-6.2,1.4-8.8-2.7-6.9-7.5c2.1-5.2,9.9-7.2,15.3-0.9c5.7,6.6,2.9,14.3-2.4,19.2
			c-7.5,6.8-18.6,7.3-28.2-0.9c-7.8-6.7-8.9-18.3-5.7-30.6c1.9-7.3,7.4-15.8,15.3-20.1c0.6,0.4,1.2,0.7,1.7,1.1
			c2.3,1.6,4.2,3.1,6.7,4.5c2.6,1.3,9.9,3.4,11.8,4.3c1.8,0.9,4,2.1,4.7,3.2c0.7,1.1,1.6,2.6,2.4,3.2c0.9,0.6,2.3,0.8,2.9-0.7
			c0.6-1.5-1.3-2.5-2.4-2.9c-1.1-0.4-2.6-1.3-2.6-1.5c0-0.4,1.5-0.2,2.9,0.3c1.4,0.5,2.3,1.6,3.8,2.4c1.5,0.9,3.2,0.4,3.6-0.7
			c0.4-1,0.3-2.5-2-3.2c-2.3-0.7-4.4-0.7-6-0.8c-1.6-0.1-3.2-0.7-2.9-1.4c0.3-0.7,2.2-0.6,4.3-0.4s3.3,1,4.8,1.1
			c1.5,0.1,2.6-0.9,2.5-2.2c-0.1-1.3-1.6-2-3-1.9c-1.4,0.1-4.3,1-6.7,0.9c-2.3-0.1-4-1.3-4-2.5s1.8-0.7,3.3-0.8
			c1.5-0.1,2.8-1.6,1.8-2.7c-1-1.1-3-0.2-3.9,0.5c-0.9,0.7-3.1,1.9-5,2.1c-1.9,0.2-4.7-2.2-6.9-3.6c-0.8-0.5-1.5-0.9-2.4-1.4
			c12-2,28.7,0.1,51.8-0.9C155.7,81.7,168.8,74.7,161.4,55.1z M128,66.8c-10,0-18.2-8-18.2-17.9S118,31.1,128,31.1
			c10,0,18.2,8,18.2,17.9S138.1,66.8,128,66.8z"/>
		<g>
			<path d="M42.5,197.8v1.1l0.6,1.5c1.7,2.7,3.4,4.9,5,6.5c1.9,2,4.4,4,7.5,6c1,0.7,2.3,1.2,3.7,1.7c0.4,0.2,1.4,0.3,2.9,0.5h0.2
				c1.7,0,2.6,0.7,2.6,2v0.2c0,1.3-0.9,1.9-2.7,2c-2.7-0.3-4.4-0.6-5.1-0.8c-1.9-0.6-3.5-1.3-4.8-2.3c-3.5-2.3-6.4-4.6-8.6-6.8
				c-1-1-2-2.2-3.2-3.7c-0.1,4.8-0.3,9-0.5,12.7c-0.4,1-1.1,1.4-2.2,1.4c-0.5,0-1-0.1-1.6-0.3c-1.1-0.4-1.7-1-1.7-1.6
				c0-0.2,0.1-0.6,0.3-1.1c0.3-6.7,0.5-13.4,0.5-20.2c0-4.5-0.1-9-0.2-13.6c0-0.2-0.1-0.4-0.1-0.6c0-1,0.8-1.6,2.3-1.8
				c0.3,0,0.5-0.1,0.8-0.1c1.4,0,2.3,0.6,2.4,1.8c0.1,3.4,0.1,7.1,0.1,11.2c0.6-0.4,2.1-1.2,4.4-2.4c1.7-0.9,3.1-1.7,4.2-2.3
				l9.4-6.2c0.7-0.6,1.4-0.9,2.1-0.9c0.8,0,1.5,0.4,2.2,1.1c0.4,0.5,0.6,0.9,0.6,1.2c0,0.4-0.3,0.8-0.8,1.3
				C56.2,189.6,49.5,193.7,42.5,197.8z"/>
			<path d="M80.9,190.2h1.3c1.5,0,3.2,0.5,5,1.5c0.5,0.3,1.1,0.8,1.8,1.4c1,1.1,1.7,2.1,2.2,3.1c0.3,0.5,0.6,1.8,1,4.1
				c0.4,2.6,0.6,4.8,0.6,6.7v4.3c-0.1,4.8-0.2,7.1-0.2,7.1c-0.2,0.6-0.4,1.1-0.7,1.4c-0.6,0.5-1.3,0.8-1.9,0.8h-0.8
				c-0.7,0-1.4-0.4-2.1-1.1c-0.3-0.3-0.4-1.1-0.4-2.2c-2.2,0.9-4.1,1.6-5.7,2.1c-1.1,0.2-2.1,0.4-3.1,0.4c-4,0-7-1.4-8.9-4.2
				c-0.4-0.6-0.7-1.3-0.9-2.1c-0.1-0.6-0.2-1-0.2-1.3v-1.5c0-1.1,0.5-2.6,1.4-4.2c0.4-0.6,1-1.2,1.7-1.9c1.3-1.1,2.6-1.9,3.9-2.3
				c1.4-0.5,2.8-0.7,4-0.7h0.4c1.4,0,3.3,0.5,5.5,1.4c0.7,0.3,1.4,0.6,1.9,0.9v-1.2c0-2.1-0.4-3.8-1.3-5.2c-0.4-0.7-0.8-1.3-1.3-1.8
				c-0.8-0.5-1.5-0.8-2.3-0.8c-0.8,0-2,0.2-3.4,0.6c-2.5,1-3.8,1.6-4.1,1.6c-0.3,0.1-0.6,0.1-0.9,0.1c-1.1,0-2-0.4-2.6-1.3
				c-0.2-0.3-0.2-0.6-0.2-0.8v-0.2c0-0.6,0.4-1.1,1.2-1.7c0.2-0.1,1.6-0.7,4.4-1.7C78.4,190.6,80,190.2,80.9,190.2z M73.4,211.5
				c0,2,0.8,3.3,2.5,3.9c0.5,0.2,1,0.2,1.6,0.2c1,0,2.7-0.3,5-1c0.6-0.2,1.4-0.6,2.6-1.2c1.1-0.6,1.7-1.2,1.8-1.8
				c0-0.4,0.1-1,0.1-1.8c0-1.1-0.6-1.9-1.7-2.3c-3.1-1.3-5.1-2-6.3-2h-0.4c-1.1,0-2.2,0.5-3.4,1.6C74,208.4,73.4,209.9,73.4,211.5z"
				/>
			<path d="M132.3,200.1l-0.8-2.6l-0.7-1.3l-0.5,0.6c-1.3,1.8-2.2,3.2-2.6,4.3c-4,8.5-6.1,13.1-6.3,13.9c-0.3,0.7-0.5,1.2-0.6,1.5
				c-0.2,0.3-0.6,0.4-1.4,0.5c-0.3,0.1-0.6,0.1-0.8,0.1c-0.9,0-1.5-0.2-1.8-0.6c-0.4-0.6-0.7-1.3-0.9-2.2
				c-2.1-6.3-3.8-11.7-4.9-16.3c-0.1-0.3-0.4-0.8-0.7-1.3l-0.4-0.3l-0.3-0.2l-0.7-0.1l-0.8,0.2l-1.3,1.1c-1.6,2.4-2.7,5.6-3.4,9.5
				c0,3.1-0.1,6.9-0.2,11.5c0,1.4-0.9,2.1-2.7,2.1h-0.1c-1.8,0-2.7-0.7-2.7-2v-0.1c0.2-4.1,0.2-9.1,0.2-15c0-2.4,0-4.8,0-7.2
				c0-0.2,0-0.3,0-0.5c0-1.1,0.8-1.7,2.4-1.9c0.2,0,0.3,0,0.5,0c1.3,0,2.1,0.6,2.7,1.9c1-1.1,2-2.1,3.1-2.9c0.7-0.5,1.7-0.8,2.9-0.8
				h0.4c0.8,0,1.7,0.2,2.5,0.5c0.6,0.3,1.3,0.8,2,1.4c0.8,0.7,1.3,1.3,1.4,1.6c1.3,3.2,2.4,7.6,3.3,13.3c1.6-4.1,2.8-7.2,3.7-9.3
				c0.6-1.4,1.7-3.1,3.2-5.1c0.5-0.6,1.2-1.3,2.1-1.9c0.6-0.4,1.4-0.7,2.5-0.9c0.2,0,0.4-0.1,0.6-0.1c0.3,0,0.7,0,1.1,0.1
				c0.6,0.1,1.1,0.3,1.5,0.5c1,0.7,1.7,1.3,2,1.8c1.2,2,1.9,3.7,2.2,5.3c0.5,3.1,0.9,9.3,1.4,18.6c0,1.4-0.9,2-2.7,2h-0.1
				c-1.8,0-2.7-0.7-2.7-2v-0.2C133.2,209.4,132.7,203.5,132.3,200.1z"/>
			<path d="M148.3,205.4c-0.1,1.1-0.2,1.9-0.2,2.4c0,0.5,0,1.1,0.1,1.6c0.1,1.3,0.4,2.5,0.9,3.4c0.5,0.6,1,1.1,1.5,1.5
				c0.9,0.6,1.9,1.1,2.9,1.4c1.2,0.3,2.4,0.6,3.6,0.6h0.6c1.8,0,3.5-0.3,5.1-0.8c0.5-0.2,1.5-0.7,3.2-1.7c0.7-0.5,1.4-0.8,2.1-0.8
				c0.8,0,1.6,0.4,2.2,1.3c0.3,0.5,0.5,0.9,0.5,1.2c0,0.4-0.3,0.8-1,1.3c-2.5,1.5-4.1,2.3-4.8,2.6c-1.6,0.6-3.4,0.9-5.4,1.1
				c-0.6,0-1.2,0.1-1.8,0.1c-1.3,0-2.5-0.1-3.7-0.3c-1.9-0.3-3.5-0.8-5-1.5c-1.3-0.7-2.7-1.7-4.1-3c-0.5-0.4-0.9-1.1-1.4-1.9
				c-0.5-1-1-2-1.3-3c-0.2-0.9-0.3-1.8-0.3-2.7c0-0.5,0-0.9,0.1-1.3c0.3-1.6,0.5-2.7,0.7-3.5c0.3-1.2,1.2-3.1,2.7-5.9
				c0.8-1.4,2.1-2.7,3.9-4c1.4-1,3-1.6,4.8-1.9c0.7-0.1,1.4-0.2,2.2-0.2c0.8,0,1.7,0.1,2.7,0.3c1.4,0.3,2.8,0.8,4.1,1.6
				c1,0.6,2,1.4,3.1,2.6c0.3,0.3,0.6,0.8,1,1.5c0.5,0.9,0.7,1.8,0.7,2.7c0,0.2,0,0.4,0,0.6c-0.1,0.6-0.3,1.2-0.6,1.7l-0.6,0.9
				L166,204l-0.9,0.7l-1.1,0.6l-2.3,0.8l-2.4,0.4l-2.3,0c-0.9,0-3.1-0.3-6.5-0.7L148.3,205.4z M155.4,203.2c0.8,0.1,1.6,0.1,2.2,0.1
				c0.4,0,0.8,0,1.1,0c1.2-0.1,2.1-0.4,2.8-0.8c0.6-0.4,0.9-1.2,0.9-2.2c0-0.2,0-0.4,0-0.6c-0.1-0.4-0.2-0.7-0.3-1
				c-0.2-0.4-0.3-0.6-0.3-0.6c-0.8-0.8-1.4-1.3-1.9-1.6c-1.1-0.6-2.2-1-3.3-1c-0.8,0-1.6,0.2-2.3,0.5l-1.3,0.6l-1.3,1.1l-1.3,1.6
				l-1.7,2.9C152.1,202.8,154.2,203.1,155.4,203.2z"/>
			<path d="M188.8,202.2l-5,2.2l-4.2,2.5l4.7,3.2l4.5,2.7c3.1,1.5,5,2.4,5.7,2.7s1.1,1,1.3,1.9v0c-0.1,1.3-1,2-2.7,2h-0.3
				c-1.5-0.7-2.8-1.3-4-1.7c-1.2-0.5-3.3-1.6-6.2-3.3c-0.9-0.5-2.1-1.2-3.7-2c0,2.2,0,4.1,0,5.6v0.3c0,1.2-0.9,1.9-2.6,2h-0.3
				c-1.7,0-2.6-0.7-2.6-2v-5.7c0-10.5,0.1-20.7,0.3-30.6c0.1-1.3,1-2,2.6-2h0.4c1.7,0.1,2.6,0.8,2.6,2v0.3
				c-0.1,5.9-0.2,12.3-0.3,19.1c0.9-0.4,1.7-0.7,2.2-1c2.3-1,5-2.5,8.3-4.3c0.7-0.6,1.4-0.9,2.1-0.9c0.8,0,1.6,0.4,2.2,1.2
				c0.4,0.5,0.6,0.9,0.6,1.2c0,0.4-0.3,0.8-0.9,1.3L188.8,202.2z"/>
			<path d="M204,199.6c-0.2,3-0.2,5.3-0.2,6.8c0,0.9,0,1.5,0.1,2c0.2,1.6,0.9,3.5,1.9,5.7c0.3,0.5,0.7,1.1,1.4,1.8
				c0.7,0.7,1.5,1.1,2.3,1.2c0.2,0,0.4,0,0.6,0c0.3,0,0.7-0.1,1-0.2c0.5-0.2,0.9-0.3,1.2-0.6c1-0.7,1.7-1.4,2.1-2.1
				c1.1-1.6,1.9-3.3,2.2-5.1c0.3-1.6,0.5-3.2,0.5-4.9c0-0.9,0-1.8-0.1-2.8l-0.8-4.6c-0.1-0.2-0.1-0.4-0.1-0.5c0-0.6,0.7-1,2.1-1.3
				c0.4-0.1,0.7-0.1,1-0.1c1.4,0,2.2,0.5,2.4,1.5c0.7,4.7,1,7.6,1,9v0.3c-0.1,2.5-0.6,4.8-1.6,6.9c-0.7,1.6-1.9,3.2-3.8,5
				c-0.5,0.5-1.4,1.1-2.6,1.6c-1,0.5-2.1,0.8-3.1,0.9c-0.5,0.1-1.1,0.1-1.7,0.1c-1.1,0-2.2-0.2-3.3-0.5c-1-0.3-2-0.8-2.9-1.5
				c-0.9-0.6-1.7-1.3-2.2-2c-1.1-1.5-1.9-2.9-2.3-4.2c-0.8-2.4-1.1-4.9-1.1-7.4v-0.4l0.5-5.1c0.1-1,1-1.5,2.5-1.5c0.2,0,0.4,0,0.6,0
				c1.6,0.2,2.3,0.7,2.3,1.4C204.1,199.3,204.1,199.4,204,199.6z"/>
		</g>
		<g>
			<path fill="#C2C3C9" d="M104.2,238.3c-0.3,0.1-1.1,0.1-2.2,0.1c-6,0-7.5-3.3-7.5-4.9c0-2.8,2.6-6.2,8.7-7.2l0.3,1.5
				c-3.8,0.5-7.1,2.6-7.1,5.5c0,1.9,1.7,3.8,5.9,3.8c0.7,0,1.5-0.1,1.9-0.2L104.2,238.3z"/>
			<path fill="#C2C3C9" d="M109,233.1c0,0.6,0.1,4.8,0.1,5.1h-1.8c0.1-0.4,0-5.6,0-6v-1.3c0-0.5,0-3.9-0.1-4.2c0.8,0,2.4,0,3.8,0.1
				c2.3,0.3,3.7,1.2,3.7,2.7c0,1.4-1,2.5-2.5,3.4c0.4,0.6,3.6,4,4.1,4.5l-1.3,1.2c-0.2-0.2-4.2-5.1-4.7-5.8c0.9-0.4,2.6-1.3,2.6-3
				c0-0.8-0.6-1.8-3.9-1.8V233.1z"/>
			<path fill="#C2C3C9" d="M125.5,238.3c-0.6,0-5.9-0.2-6.3-0.2c0.1-0.9,0.1-4.4,0.1-4.8v-2.2c0-0.3,0-4.3-0.1-4.6
				c0.4,0,5-0.3,5.9-0.3l0.1,1.4c-0.8,0-3.9,0.1-4.2,0.1v4c0.3,0,2.6-0.1,3.7-0.2l0.1,1.4c-0.6,0-3.3-0.1-3.7-0.1v3.9
				c0.4,0,2.8,0,4.4-0.1L125.5,238.3z"/>
			<path fill="#C2C3C9" d="M127.2,237.7c0.9-1.7,6-11,6.4-11.6h0c1.5,2.4,5.7,9.8,6.8,11.5l-1.6,1c-0.3-0.6-2.1-3.9-2.3-4.2l-6,0.2
				c-0.2,0.5-1.6,3.4-1.9,4L127.2,237.7z M136,233.1c-0.2-0.4-2.2-4.1-2.4-4.4c-0.3,0.4-2.2,4.3-2.3,4.6L136,233.1z"/>
			<path fill="#C2C3C9" d="M144.2,238.2c0.1-0.4,0.1-5.2,0.1-7.9V228c-2,0-4.5,0.1-4.8,0.2v-1.6c0.5,0.1,4.7,0.2,4.9,0.2h1.6
				c0.3,0,4.2-0.1,4.7-0.2v1.6c0-0.1-3.3-0.2-4.7-0.2v2.6c0,3.4,0.2,7.3,0.2,7.6H144.2z"/>
			<path fill="#C2C3C9" d="M154.9,233.2c0,1.7,0.1,4.6,0.1,5h-1.8c0-0.7,0.1-4.6,0.1-5v-1.8c0-0.3-0.1-4.4-0.1-4.8h1.9
				c0,0.3-0.1,2.8-0.1,4.8V233.2z"/>
			<path fill="#C2C3C9" d="M170.2,227.1c-0.6,0.9-5.9,10.4-6.5,11.6h0c-0.3-0.5-5.5-10.8-6-11.6l1.6-0.8c0.3,0.8,4.2,8.8,4.5,9.3
				c0.3-0.4,4.6-8.8,4.9-9.3L170.2,227.1z"/>
			<path fill="#C2C3C9" d="M179,238.3c-0.6,0-5.9-0.2-6.3-0.2c0.1-0.9,0.1-4.4,0.1-4.8v-2.2c0-0.3,0-4.3-0.1-4.6
				c0.4,0,5-0.3,5.9-0.3l0.1,1.4c-0.8,0-3.9,0.1-4.2,0.1v4c0.3,0,2.6-0.1,3.7-0.2l0.1,1.4c-0.6,0-3.3-0.1-3.7-0.1v3.9
				c0.4,0,2.8,0,4.4-0.1L179,238.3z"/>
		</g>
		<g>
			<g>
				<line fill="#C2C3C9" x1="91" y1="232.9" x2="32.7" y2="232.9"/>
				<rect x="32.7" y="232.4" fill="#C2C3C9" width="58.3" height="1"/>
			</g>
			<g>
				<line fill="#C2C3C9" x1="223.3" y1="232.9" x2="183.7" y2="232.9"/>
				<rect x="183.7" y="232.4" fill="#C2C3C9" width="39.7" height="1"/>
			</g>
		</g>
	</g>
</g>
</svg>
