<!-- Generator: Adobe Illustrator 17.1.0, SVG Export Plug-In  -->
<svg version="1.1"
	 xmlns="http://www.w3.org/2000/svg" xmlns:xlink="http://www.w3.org/1999/xlink" xmlns:a="http://ns.adobe.com/AdobeSVGViewerExtensions/3.0/"
	 x="0px" y="0px" width="265.1px" height="150.3px" viewBox="0 0 265.1 150.3" enable-background="new 0 0 265.1 150.3"
	 xml:space="preserve">
<defs>
</defs>
<g>
	<g>
		<line fill="#FFFFFF" x1="160.5" y1="74.5" x2="104.6" y2="74.5"/>
		<rect x="104.6" y="73.9" fill="#FFFFFF" width="55.9" height="1.2"/>
	</g>
	<g>
		<line fill="#FFFFFF" x1="158.6" y1="71.4" x2="106.5" y2="71.4"/>
		<rect x="106.5" y="70.8" fill="#FFFFFF" width="52.2" height="1.2"/>
	</g>
	<g>
		<line fill="#FFFFFF" x1="154.2" y1="68.2" x2="110.9" y2="68.2"/>
		<rect x="110.9" y="67.6" fill="#FFFFFF" width="43.3" height="1.2"/>
	</g>
	<g>
		<line fill="#FFFFFF" x1="150.8" y1="65.1" x2="114.3" y2="65.1"/>
		<rect x="114.3" y="64.5" fill="#FFFFFF" width="36.5" height="1.2"/>
	</g>
	<g>
		<line fill="#FFFFFF" x1="146.2" y1="61.4" x2="118.9" y2="61.4"/>
		<rect x="118.9" y="60.7" fill="#FFFFFF" width="27.3" height="1.2"/>
	</g>
	<g>
		<line fill="#FFFFFF" x1="141.8" y1="58.8" x2="123.3" y2="58.8"/>
		<rect x="123.3" y="58.2" fill="#FFFFFF" width="18.4" height="1.2"/>
	</g>
	<g>
		<line fill="#FFFFFF" x1="137.5" y1="55.7" x2="127.6" y2="55.7"/>
		<rect x="127.6" y="55.1" fill="#FFFFFF" width="9.9" height="1.2"/>
	</g>
	<g>
		<line fill="#FFFFFF" x1="135.4" y1="53.4" x2="129.7" y2="53.4"/>
		<rect x="129.7" y="52.8" fill="#FFFFFF" width="5.6" height="1.2"/>
	</g>
	<g>
		<line fill="#FFFFFF" x1="104.6" y1="111" x2="0" y2="111"/>
		<rect x="0" y="110.4" fill="#FFFFFF" width="104.6" height="1.2"/>
	</g>
	<g>
		<line fill="#FFFFFF" x1="265.1" y1="111" x2="158.6" y2="111"/>
		<rect x="158.6" y="110.4" fill="#FFFFFF" width="106.5" height="1.2"/>
	</g>
	<g>
		<path fill="#FFFFFF" d="M130.9,105.9c-0.2,0.5-5.1,12.2-5.6,13.3h0c-0.7-1.4-4.3-7.3-4.8-8.3c-0.8,1.5-4.1,7.5-5,9h0
			c-0.6-1.6-4.1-11.9-4.9-14.2l1.7-0.7c0.7,2.3,3.3,10.1,3.7,11.2c0.5-1.1,3.2-5.9,4.6-8.4h0c1.2,2.1,3.5,6.1,4.6,8
			c0.3-1,3.6-9.5,4-10.6L130.9,105.9z"/>
		<path fill="#FFFFFF" d="M140.8,119.4c-0.3,0-6.3-0.2-6.7-0.2c0.1-1.1,0.1-5.3,0.1-5.8v-2.7c0-0.3,0-5.1-0.1-5.5
			c0.5,0,5.7-0.3,6.3-0.3l0.1,1.6c-0.6,0-4.2,0.1-4.6,0.1v5c0.4,0,2.9-0.1,3.9-0.2l0.1,1.6c-0.4,0-3.6-0.1-4-0.1v4.9
			c0.5,0,3.2,0.1,4.8-0.1L140.8,119.4z"/>
		<path fill="#FFFFFF" d="M145.6,109.6c0-0.6,0-4-0.1-4.4c1.1,0,2,0,2.8,0.1c4,0.4,4.5,1.9,4.5,3c0,0.8-0.4,2.1-2.5,3.1v0
			c1.4,0.2,3.1,1.3,3.1,3.1c0,2.4-3,4.7-7.8,4.7h-0.2c0.1-1.1,0.1-7.1,0.1-7.5V109.6z M147.3,111.4c2.2-0.1,3.7-1.4,3.7-2.7
			c0-1.8-2.3-2.1-3.7-2.1V111.4z M147.3,117.9c2.2-0.2,4.2-1.3,4.2-3.1c0-1.4-1.6-2.4-4.2-2.3V117.9z"/>
	</g>
	<g>
		<path fill-rule="evenodd" clip-rule="evenodd" fill="#FFFFFF" d="M55.5,75.1C55.5,34.4,88.9,1,130.2,0c-0.4,0-0.7,0-1.1,0
			C87,0,52.5,33.8,52.5,75.1c0,41.4,34.4,75.1,76.6,75.1c0.4,0,0.7,0,1.1,0C88.9,149.2,55.5,115.9,55.5,75.1z"/>
		<path fill-rule="evenodd" clip-rule="evenodd" fill="#FFFFFF" d="M135.9,0c-0.5,0-1,0-1.5,0c41.2,1.2,74.4,34.5,74.4,75.1
			s-33.2,73.9-74.4,75.1c0.5,0,1,0,1.5,0c42.2,0,76.6-33.8,76.6-75.1C212.5,33.8,178.1,0,135.9,0z"/>
	</g>
</g>
</svg>
